<svg width="32" height="32" viewBox="0 0 32 32" fill="none" xmlns="http://www.w3.org/2000/svg">
    <path d="M26.354 10.4245C26.354 4.0925 22.292 0 16 0C9.708 0 5.646 4.0925 5.646 10.4245C5.646 15.7025 13.8015 26.298 14.7335 27.4835L15.8725 28.9475C11.1015 28.96 7.254 29.6375 7.254 30.473C7.254 31.316 11.172 31.9995 16.005 31.9995C20.838 31.9995 24.756 31.316 24.756 30.473C24.756 29.637 20.904 28.959 16.1285 28.9475L17.2745 27.4835C18.198 26.2905 26.354 15.695 26.354 10.4245ZM12.647 10.4175C12.647 8.6155 14.148 7.1545 16 7.1545C17.852 7.1545 19.353 8.6155 19.353 10.4175C19.353 12.2195 17.852 13.6805 16 13.6805C14.148 13.6805 12.647 12.2195 12.647 10.4175Z" fill="#8FC7DF" />
</svg>
    