<svg width="24" height="22" viewBox="0 0 24 22" fill="none" xmlns="http://www.w3.org/2000/svg">
	<path d="M23.25 11.1875C23.25 9.6875 22.0781 8.89062 20.4375 8.89062H15.7031C16.0313 7.625 16.2188 6.40625 16.2188 5.375C16.2188 1.29688 15.0938 0.453125 14.1094 0.453125C13.4531 0.453125 12.9844 0.5 12.3281 0.921875C12.1406 1.01562 12.0469 1.20312 12 1.39062L11.2969 5.1875C10.5469 7.20313 8.625 8.9375 7.07812 10.1094V20.1406C7.59375 20.1406 8.25 20.4219 8.85937 20.75C9.60937 21.125 10.4062 21.5 11.2969 21.5H18C19.4062 21.5 20.4375 20.375 20.4375 19.3906C20.4375 19.2031 20.4375 19.0156 20.3906 18.875C21.2812 18.5469 21.8438 17.7969 21.8438 16.9531C21.8438 16.5313 21.75 16.1562 21.6094 15.875C22.125 15.5 22.6875 14.8906 22.6875 14.1406C22.6875 13.7656 22.5 13.2969 22.2188 12.9688C22.8281 12.5 23.25 11.8437 23.25 11.1875ZM21.7969 11.1875C21.7969 12.0781 20.8594 12.1719 20.7188 12.5937C20.5781 13.0625 21.2812 13.25 21.2812 14.0938C21.2812 14.9844 20.2031 14.9844 20.0625 15.4062C19.875 15.9219 20.3906 16.1094 20.3906 16.9531C20.3906 17 20.3906 17.0469 20.3906 17.0937C20.25 17.7969 19.1719 17.8438 18.9844 18.125C18.7969 18.4531 19.0312 18.6406 19.0312 19.3906C19.0312 19.8125 18.5625 20.0937 18 20.0937H11.2969C10.7812 20.0937 10.125 19.8125 9.51563 19.4844C8.95313 19.2031 8.39062 18.9219 7.78125 18.7813V11.3281C9.51562 10.0156 11.7656 8 12.6563 5.5625C12.6563 5.51562 12.6562 5.46876 12.7031 5.46876L13.3594 1.95313C13.5938 1.85938 13.7812 1.85937 14.1562 1.85937C14.2969 1.85937 14.8594 2.70312 14.8594 5.375C14.8594 6.40625 14.6719 7.57812 14.2969 8.89062H14.1094C13.7344 8.89062 13.4062 9.21875 13.4062 9.59375C13.4062 9.96875 13.7344 10.2969 14.1094 10.2969H20.4375C21.1406 10.2969 21.7969 10.625 21.7969 11.1875Z" fill="#969CB3" />
	<path d="M6.375 21.5469H2.15625C1.35938 21.5469 0.75 20.9375 0.75 20.1406V10.2969C0.75 9.5 1.35938 8.89062 2.15625 8.89062H6.375C7.17188 8.89062 7.78125 9.5 7.78125 10.2969V20.1406C7.78125 20.9375 7.17188 21.5469 6.375 21.5469ZM2.15625 10.2969V20.1406H6.375V10.2969H2.15625Z" fill="#969CB3" />
</svg>
	